<?xml version="1.0" encoding="UTF-8" standalone="no"?>
<!-- Uploaded to: SVG Repo, www.svgrepo.com, Generator: SVG Repo Mixer Tools -->

<svg
   version="1.1"
   id="Layer_1"
   width="800px"
   height="800px"
   viewBox="0 0 64 64"
   enable-background="new 0 0 64 64"
   xml:space="preserve"
   sodipodi:docname="button-night-mode.svg"
   inkscape:version="1.3.2 (091e20ef0f, 2023-11-25)"
   xmlns:inkscape="http://www.inkscape.org/namespaces/inkscape"
   xmlns:sodipodi="http://sodipodi.sourceforge.net/DTD/sodipodi-0.dtd"
   xmlns="http://www.w3.org/2000/svg"
   xmlns:svg="http://www.w3.org/2000/svg"
   xmlns:sketch="http://www.bohemiancoding.com/sketch/ns"><defs
   id="defs1" /><sodipodi:namedview
   id="namedview1"
   pagecolor="#ffffff"
   bordercolor="#000000"
   borderopacity="0.25"
   inkscape:showpageshadow="2"
   inkscape:pageopacity="0.0"
   inkscape:pagecheckerboard="0"
   inkscape:deskcolor="#d1d1d1"
   showguides="true"
   inkscape:zoom="1.6661204"
   inkscape:cx="525.17213"
   inkscape:cy="537.47616"
   inkscape:window-width="3755"
   inkscape:window-height="2091"
   inkscape:window-x="85"
   inkscape:window-y="32"
   inkscape:window-maximized="1"
   inkscape:current-layer="Layer_1"><sodipodi:guide
     position="-69.941645,31.949072"
     orientation="0,-1"
     id="guide1"
     inkscape:locked="false" /></sodipodi:namedview>
<path
   fill="none"
   stroke="#000000"
   stroke-width="2"
   stroke-miterlimit="10"
   d="M47,48c8.837,0,16-7.163,16-16s-7.163-16-16-16H17  C8.163,16,1,23.163,1,32s7.163,16,16,16H47z"
   id="path1"
   style="stroke:#ffdbde;stroke-opacity:1;stroke-width:0.8;stroke-dasharray:none" />

<path
   d="m 45.363656,31.978883 c 0,-5.429031 3.524149,-10.042921 8.453553,-11.809324 -1.382436,-0.495693 -2.869519,-0.779735 -4.428201,-0.779735 -7.114393,0 -12.881755,5.636752 -12.881755,12.589059 0,6.953095 5.767362,12.589059 12.881755,12.589059 1.558682,0 3.045765,-0.284042 4.428201,-0.779735 -4.929404,-1.766403 -8.453553,-6.379506 -8.453553,-11.809324 z"
   id="moon"
   sketch:type="MSShapeGroup"
   style="opacity:1;fill:none;fill-opacity:1;fill-rule:evenodd;stroke:#ffdbde;stroke-width:0.8;stroke-miterlimit:10;stroke-dasharray:none;stroke-opacity:1"
   sodipodi:nodetypes="scssscs" /></svg>
