<?xml version="1.0" encoding="UTF-8" standalone="no"?>
<!-- Uploaded to: SVG Repo, www.svgrepo.com, Generator: SVG Repo Mixer Tools -->

<svg
   version="1.1"
   id="Layer_1"
   width="800px"
   height="800px"
   viewBox="0 0 64 64"
   enable-background="new 0 0 64 64"
   xml:space="preserve"
   sodipodi:docname="button-light-mode.svg"
   inkscape:version="1.3.2 (091e20ef0f, 2023-11-25)"
   xmlns:inkscape="http://www.inkscape.org/namespaces/inkscape"
   xmlns:sodipodi="http://sodipodi.sourceforge.net/DTD/sodipodi-0.dtd"
   xmlns="http://www.w3.org/2000/svg"
   xmlns:svg="http://www.w3.org/2000/svg"><defs
   id="defs1" /><sodipodi:namedview
   id="namedview1"
   pagecolor="#ffffff"
   bordercolor="#000000"
   borderopacity="0.25"
   inkscape:showpageshadow="2"
   inkscape:pageopacity="0.0"
   inkscape:pagecheckerboard="0"
   inkscape:deskcolor="#d1d1d1"
   showguides="true"
   inkscape:zoom="0.83306018"
   inkscape:cx="699.8294"
   inkscape:cy="162.65332"
   inkscape:window-width="3755"
   inkscape:window-height="2091"
   inkscape:window-x="85"
   inkscape:window-y="32"
   inkscape:window-maximized="1"
   inkscape:current-layer="Layer_1"><sodipodi:guide
     position="-69.941645,31.949072"
     orientation="0,-1"
     id="guide1"
     inkscape:locked="false" /></sodipodi:namedview>
<path
   fill="none"
   stroke="#000000"
   stroke-width="2"
   stroke-miterlimit="10"
   d="M47,48c8.837,0,16-7.163,16-16s-7.163-16-16-16H17  C8.163,16,1,23.163,1,32s7.163,16,16,16H47z"
   id="path1"
   style="stroke:#110026;stroke-opacity:1" />

<g
   style="fill:#110026;stroke:none;stroke-opacity:1;fill-opacity:1"
   id="g1"
   transform="matrix(1.218179,0,0,1.218179,2.875735,17.44799)"><path
     fill-rule="evenodd"
     clip-rule="evenodd"
     d="m 12,1.25 c 0.4142,0 0.75,0.33579 0.75,0.75 V 3 C 12.75,3.41421 12.4142,3.75 12,3.75 11.5858,3.75 11.25,3.41421 11.25,3 V 2 C 11.25,1.58579 11.5858,1.25 12,1.25 Z M 4.39861,4.39861 c 0.29289,-0.29289 0.76777,-0.29289 1.06066,0 l 0.39284,0.39284 c 0.29289,0.29289 0.29289,0.76776 0,1.06066 -0.2929,0.29289 -0.76777,0.29289 -1.06066,0 L 4.39861,5.45927 c -0.29289,-0.29289 -0.29289,-0.76777 0,-1.06066 z m 15.20249,2.6e-4 c 0.2929,0.29289 0.2929,0.76777 0,1.06066 l -0.3928,0.39284 c -0.2929,0.29289 -0.7678,0.29289 -1.0607,0 -0.2929,-0.2929 -0.2929,-0.76777 0,-1.06066 l 0.3929,-0.39284 c 0.2929,-0.29289 0.7677,-0.29289 1.0606,0 z M 12,6.75 c -2.8995,0 -5.25,2.3505 -5.25,5.25 0,2.8995 2.3505,5.25 5.25,5.25 2.8995,0 5.25,-2.3505 5.25,-5.25 C 17.25,9.1005 14.8995,6.75 12,6.75 Z M 5.25,12 c 0,-3.72792 3.02208,-6.75 6.75,-6.75 3.7279,0 6.75,3.02208 6.75,6.75 0,3.7279 -3.0221,6.75 -6.75,6.75 -3.72792,0 -6.75,-3.0221 -6.75,-6.75 z m -4,0 c 0,-0.4142 0.33579,-0.75 0.75,-0.75 h 1 c 0.41421,0 0.75,0.3358 0.75,0.75 0,0.4142 -0.33579,0.75 -0.75,0.75 H 2 C 1.58579,12.75 1.25,12.4142 1.25,12 Z m 19,0 c 0,-0.4142 0.3358,-0.75 0.75,-0.75 h 1 c 0.4142,0 0.75,0.3358 0.75,0.75 0,0.4142 -0.3358,0.75 -0.75,0.75 h -1 c -0.4142,0 -0.75,-0.3358 -0.75,-0.75 z m -2.1024,6.1476 c 0.2929,-0.2929 0.7678,-0.2929 1.0607,0 l 0.3928,0.3929 c 0.2929,0.2929 0.2929,0.7677 0,1.0606 -0.2929,0.2929 -0.7677,0.2929 -1.0606,0 l -0.3929,-0.3928 c -0.2929,-0.2929 -0.2929,-0.7678 0,-1.0607 z m -12.29549,3e-4 c 0.29289,0.2929 0.29289,0.7678 0,1.0607 l -0.39284,0.3928 c -0.29289,0.2929 -0.76777,0.2929 -1.06066,0 -0.29289,-0.2929 -0.29289,-0.7678 0,-1.0607 l 0.39284,-0.3928 c 0.29289,-0.2929 0.76776,-0.2929 1.06066,0 z M 12,20.25 c 0.4142,0 0.75,0.3358 0.75,0.75 v 1 c 0,0.4142 -0.3358,0.75 -0.75,0.75 -0.4142,0 -0.75,-0.3358 -0.75,-0.75 v -1 c 0,-0.4142 0.3358,-0.75 0.75,-0.75 z"
     fill="#1c274c"
     id="path1-3"
     style="stroke:none;stroke-opacity:1;fill:#110026;fill-opacity:1" /></g></svg>
